<svg width="124" height="91" viewBox="0 0 124 91" fill="none" xmlns="http://www.w3.org/2000/svg">
<path d="M3.57369 38.5134C11.4889 42.8929 19.9034 46.2982 28.6212 48.7194C32.9801 49.93 37.4136 50.8622 41.874 51.546C46.1015 52.21 50.3823 52.6752 54.6586 52.7129C58.6543 52.7608 62.6932 52.3514 66.5485 50.9979C70.102 49.734 73.2917 47.6055 75.811 44.5729C78.1552 41.7491 79.7228 38.1205 79.6869 34.4033C79.6774 30.7357 78.1486 27.2577 75.9888 24.5055C73.4328 21.3062 70.0494 19.1211 66.4214 17.5524C62.4445 15.8049 58.149 14.6539 53.9484 13.7415C50.0176 12.8587 45.8479 12.4233 41.8658 13.6576C38.535 14.6829 35.4193 16.8312 33.7675 20.1814C30.3259 27.1007 34.7845 34.901 39.0312 39.7892C41.6668 42.8393 44.7372 45.4519 47.8873 47.9154C51.1748 50.4583 54.6002 52.7826 58.1267 54.8781C65.2907 59.099 72.8372 62.4848 80.5962 65.3736C88.4293 68.2822 96.3903 70.7136 104.394 72.986C106.346 73.5516 108.335 74.1272 110.297 74.6531C111.482 74.9706 110.95 76.9587 109.765 76.6412C101.391 74.2696 93.054 71.9079 84.845 69.069C76.673 66.2401 68.6182 62.9738 60.9936 58.8426C53.4695 54.7809 46.3491 49.8046 40.0932 43.824C37.314 41.1616 34.8214 38.0219 33.0334 34.4744C31.351 31.1257 30.2833 27.2598 30.8511 23.3634C31.4295 19.4272 33.7748 16.007 36.9275 13.8686C40.3187 11.581 44.3901 10.7542 48.3062 10.9511C52.8574 11.1478 57.3167 12.4279 61.6436 13.7578C65.9336 15.0778 70.2387 16.7853 73.8432 19.6263C76.7924 21.9507 79.2216 25.0308 80.6124 28.7275C82.0031 32.4243 82.0329 36.6087 80.5815 40.3962C79.1194 44.2235 76.4728 47.4351 73.3038 49.7822C69.9228 52.3282 65.9458 53.6917 61.917 54.3595C57.7295 55.0274 53.5009 54.9597 49.3099 54.6039C44.6532 54.2084 40.034 53.5247 35.4418 52.5926C26.2309 50.6785 17.2812 47.6413 8.76741 43.5701C6.68917 42.587 4.63223 41.5245 2.63364 40.3923C1.4705 39.6971 2.47396 37.8778 3.57369 38.5134Z" fill="#F7520F"/>
<path d="M87.0156 83.1097C89.7863 81.5082 92.5621 80.0359 95.4014 78.6233C96.8157 77.9368 98.23 77.2504 99.6706 76.6136C100.391 76.2952 101.122 75.937 101.879 75.6286C102.372 75.4196 102.986 75.2007 103.31 74.7334C103.362 75.1309 103.404 75.5682 103.419 75.9559C98.9799 72.0816 94.5886 68.1775 90.1497 64.3032C89.7693 63.9456 89.8393 63.2399 90.1787 62.862C90.5764 62.4146 91.1531 62.4839 91.5336 62.8415C95.9725 66.7158 100.364 70.6199 104.803 74.4942C105.13 74.7524 105.156 75.3985 104.912 75.7166C104.063 77.1085 102.321 77.5367 100.965 78.1536C99.5239 78.7903 98.062 79.5066 96.6477 80.1931C93.676 81.6555 90.7942 83.2273 87.9387 84.8487C86.8156 85.4853 85.8924 83.7464 87.0156 83.1097Z" fill="#F7520F"/>
</svg>
