<svg width="74" height="73" viewBox="0 0 74 73" fill="none" xmlns="http://www.w3.org/2000/svg">
<g opacity="0.03">
<path fill-rule="evenodd" clip-rule="evenodd" d="M31.6172 8.6748C31.6349 13.5796 29.9669 22.4517 42.7985 24.5961C34.8331 25.7458 31.7891 31.9025 31.6187 39.7997C31.4233 33.8386 32.2409 26.9553 19.1733 25.0687C31.7153 24.077 31.5413 13.7153 31.6172 8.6748Z" fill="white" stroke="black" stroke-width="3.0927" stroke-miterlimit="1.5" stroke-linecap="round" stroke-linejoin="round"/>
<path fill-rule="evenodd" clip-rule="evenodd" d="M44.0703 32.6025C44.0881 37.5073 40.7471 46.6141 53.5787 48.7585C45.6132 49.9082 44.2423 55.8302 44.0718 63.7274C43.8765 57.7661 43.477 50.8306 34.4131 48.8412C43.1987 47.7927 43.0505 39.2958 44.0703 32.6025Z" fill="white" stroke="black" stroke-width="3.0927" stroke-miterlimit="1.5" stroke-linecap="round" stroke-linejoin="round"/>
<path d="M18.0067 7.2489C20.0778 9.64496 21.7199 12.4243 23.8453 14.7686" stroke="black" stroke-width="3.0927" stroke-miterlimit="1.5" stroke-linecap="round" stroke-linejoin="round"/>
<path d="M38.1089 16.5421C39.6593 15.2644 41.1252 13.8096 42.3814 12.2393" stroke="black" stroke-width="3.0927" stroke-miterlimit="1.5" stroke-linecap="round" stroke-linejoin="round"/>
<path d="M24.3769 33.0488C22.2929 34.9804 20.3575 37.1309 18.4727 39.2572" stroke="black" stroke-width="3.0927" stroke-miterlimit="1.5" stroke-linecap="round" stroke-linejoin="round"/>
<path d="M37.335 37.4785C37.5624 37.8264 37.8369 38.1434 38.0847 38.4772" stroke="black" stroke-width="3.0927" stroke-miterlimit="1.5" stroke-linecap="round" stroke-linejoin="round"/>
<path d="M34.7527 57.3201C35.2485 56.8263 35.762 56.3504 36.2503 55.8488" stroke="black" stroke-width="3.0927" stroke-miterlimit="1.5" stroke-linecap="round" stroke-linejoin="round"/>
<path d="M49.3394 41.2531C51.5337 39.2673 53.4425 37.0855 55.2901 34.7793" stroke="black" stroke-width="3.0927" stroke-miterlimit="1.5" stroke-linecap="round" stroke-linejoin="round"/>
<path d="M49.8746 57.4922C52.4617 59.1018 54.2621 62.4162 56.0521 64.8374" stroke="black" stroke-width="3.0927" stroke-miterlimit="1.5" stroke-linecap="round" stroke-linejoin="round"/>
</g>
</svg>
