<svg width="109" height="25" viewBox="0 0 109 25" fill="none" xmlns="http://www.w3.org/2000/svg">
<g clip-path="url(#clip0_0_90)">
<path d="M12.364 17.3032L18.544 21.0332L16.904 14.0032L22.364 9.2732L15.174 8.6632L12.364 2.0332L9.55401 8.6632L2.36401 9.2732L7.82401 14.0032L6.18401 21.0332L12.364 17.3032Z" fill="#F8B508"/>
</g>
<g clip-path="url(#clip1_0_90)">
<path d="M33.364 17.3032L39.544 21.0332L37.904 14.0032L43.364 9.2732L36.174 8.6632L33.364 2.0332L30.554 8.6632L23.364 9.2732L28.824 14.0032L27.184 21.0332L33.364 17.3032Z" fill="#F8B508"/>
</g>
<g clip-path="url(#clip2_0_90)">
<path d="M54.364 17.3032L60.544 21.0332L58.904 14.0032L64.364 9.2732L57.174 8.6632L54.364 2.0332L51.554 8.6632L44.364 9.2732L49.824 14.0032L48.184 21.0332L54.364 17.3032Z" fill="#F8B508"/>
</g>
<g clip-path="url(#clip3_0_90)">
<path d="M75.364 17.3032L81.544 21.0332L79.904 14.0032L85.364 9.2732L78.174 8.6632L75.364 2.0332L72.554 8.6632L65.364 9.2732L70.824 14.0032L69.184 21.0332L75.364 17.3032Z" fill="#F8B508"/>
</g>
<g clip-path="url(#clip4_0_90)">
<path d="M96.364 17.3032L102.544 21.0332L100.904 14.0032L106.364 9.2732L99.174 8.6632L96.364 2.0332L93.554 8.6632L86.364 9.2732L91.824 14.0032L90.184 21.0332L96.364 17.3032Z" fill="#F8B508"/>
</g>
<defs>
<clipPath id="clip0_0_90">
<rect width="24" height="24" fill="white" transform="translate(0.364014 0.0332031)"/>
</clipPath>
<clipPath id="clip1_0_90">
<rect width="24" height="24" fill="white" transform="translate(21.364 0.0332031)"/>
</clipPath>
<clipPath id="clip2_0_90">
<rect width="24" height="24" fill="white" transform="translate(42.364 0.0332031)"/>
</clipPath>
<clipPath id="clip3_0_90">
<rect width="24" height="24" fill="white" transform="translate(63.364 0.0332031)"/>
</clipPath>
<clipPath id="clip4_0_90">
<rect width="24" height="24" fill="white" transform="translate(84.364 0.0332031)"/>
</clipPath>
</defs>
</svg>
