<svg width="43" height="44" viewBox="0 0 43 44" fill="none" xmlns="http://www.w3.org/2000/svg">
<path fill-rule="evenodd" clip-rule="evenodd" d="M16.5 4.45946C9.85019 4.45946 4.45946 9.85019 4.45946 16.5C4.45946 23.1498 9.85019 28.5405 16.5 28.5405C23.1498 28.5405 28.5405 23.1498 28.5405 16.5C28.5405 9.85019 23.1498 4.45946 16.5 4.45946ZM0 16.5C0 7.3873 7.3873 0 16.5 0C25.6127 0 33 7.3873 33 16.5C33 25.6127 25.6127 33 16.5 33C7.3873 33 0 25.6127 0 16.5Z" fill="#CECECE"/>
<path fill-rule="evenodd" clip-rule="evenodd" d="M28.2529 25.3447L40.7008 37.7926C41.7516 38.8434 41.7516 40.5471 40.7008 41.5979C39.65 42.6487 37.9464 42.6487 36.8956 41.5979L24.4477 29.15L28.2529 25.3447Z" fill="#CECECE"/>
</svg>
