<svg width="51" height="51" viewBox="0 0 51 51" fill="none" xmlns="http://www.w3.org/2000/svg">
<g opacity="0.1" clip-path="url(#clip0_0_81)">
<path fill-rule="evenodd" clip-rule="evenodd" d="M48.3361 17.3431C38.9518 34.7931 20.2056 41.8875 2.79446 32.0636C2.21484 31.7364 1.47982 31.941 1.1527 32.5134C0.825575 33.0961 1.03005 33.8321 1.60967 34.1592C20.272 44.6987 40.3993 37.1852 50.4583 18.4881C50.7731 17.9054 50.5534 17.1692 49.9676 16.8523C49.3819 16.5457 48.6509 16.7604 48.3361 17.3431Z" fill="#2F65D5"/>
<path d="M17.4462 24.5785C19.3847 24.5785 20.9562 23.007 20.9562 21.0685C20.9562 19.13 19.3847 17.5586 17.4462 17.5586C15.5077 17.5586 13.9363 19.13 13.9363 21.0685C13.9363 23.007 15.5077 24.5785 17.4462 24.5785Z" fill="#2F65D5"/>
<path d="M31.9772 20.8456C33.8778 20.8456 35.4186 19.3048 35.4186 17.4042C35.4186 15.5036 33.8778 13.9629 31.9772 13.9629C30.0766 13.9629 28.5359 15.5036 28.5359 17.4042C28.5359 19.3048 30.0766 20.8456 31.9772 20.8456Z" fill="#2F65D5"/>
</g>
<defs>
<clipPath id="clip0_0_81">
<rect width="50" height="50" fill="white" transform="translate(0.996826 0.962891)"/>
</clipPath>
</defs>
</svg>
