<svg width="63" height="38" viewBox="0 0 63 38" fill="none" xmlns="http://www.w3.org/2000/svg">
<path fill-rule="evenodd" clip-rule="evenodd" d="M1.40684 17.3958C5.32606 21.9228 11.8929 24.7864 19.1793 26.0669C30.0662 27.9788 42.5529 26.3631 50.1186 21.5981C50.2733 21.498 50.3199 21.2911 50.2229 21.1374C50.1237 20.9796 49.9199 20.934 49.7621 21.0331C42.3131 25.7233 30.0148 27.2928 19.2941 25.4073C12.1728 24.1572 5.74223 21.3846 1.91305 16.9576C1.792 16.8167 1.58183 16.8026 1.44086 16.9236C1.3039 17.0426 1.28579 17.2549 1.40684 17.3958Z" fill="white"/>
<path fill-rule="evenodd" clip-rule="evenodd" d="M60.3337 18.7127C55.8101 21.2487 51.5818 23.0172 48.1077 27.3024C47.9927 27.4482 48.0121 27.6586 48.1578 27.7736C48.2996 27.8907 48.5109 27.8683 48.625 27.7256C52.4483 23.0111 57.2098 21.4059 62.2535 18.3756C62.5252 18.2107 62.4577 17.9823 62.4372 17.9291C62.4078 17.8497 62.3361 17.7339 62.1551 17.712C62.1195 17.7078 62.0486 17.7095 61.9496 17.7262C61.761 17.7622 61.3834 17.8678 61.2098 17.8984C60.7081 17.9827 60.207 18.0538 59.7053 18.1382C58.2707 18.3792 56.8378 18.604 55.3901 18.7238C49.975 19.1803 45.55 19.5881 41.1672 16.0607C41.0223 15.9426 40.8141 15.966 40.696 16.1108C40.5819 16.2535 40.6043 16.4648 40.747 16.5789C45.2799 20.2294 49.8467 19.8616 55.4471 19.3914C56.9129 19.2671 58.3661 19.0419 59.8148 18.7984C59.9884 18.7678 60.1611 18.7402 60.3337 18.7127Z" fill="white"/>
</svg>
