<svg width="155" height="22" viewBox="0 0 155 22" fill="none" xmlns="http://www.w3.org/2000/svg">
<path fill-rule="evenodd" clip-rule="evenodd" d="M41.8893 12.8668C35.2731 14.7646 27.6342 16.6532 20.2857 17.1248C14.0048 17.5273 7.938 16.9021 2.97224 14.2422C2.27225 13.8677 1.39566 14.1251 1.0171 14.8182C0.637958 15.5107 0.898795 16.378 1.59879 16.7531C7.01583 19.6539 13.621 20.4127 20.4721 19.9731C27.9528 19.4935 35.7295 17.5923 42.4785 15.6672C43.2616 17.2366 44.8831 18.6999 47.7397 19.7795C52.1272 21.438 58.1179 21.4175 64.4288 20.4829C73.5818 19.1281 83.428 15.8973 89.7585 13.6016C90.0182 13.508 90.4048 13.359 90.878 13.1626C91.0223 13.4777 91.1839 13.7883 91.3628 14.0932C92.9151 16.7502 95.662 18.8986 98.4609 19.6659C116.212 24.5313 136.929 18.7016 153.797 13.9573C154.559 13.742 155.003 12.9519 154.79 12.1943C154.57 11.4367 153.774 10.9965 153.006 11.2117C136.612 15.8236 116.483 21.6424 99.2284 16.9146C97.1047 16.3323 95.0388 14.6812 93.8615 12.6647C93.7288 12.4398 93.6134 12.2097 93.5037 11.9762C95.8294 10.8361 98.5647 9.24664 100.036 7.54529C101.548 5.80113 101.923 3.93936 100.608 2.18093C99.4765 0.677698 97.7626 0.549809 95.9794 1.32912C94.0577 2.1638 92.0784 4.11518 91.4378 5.03093C90.2375 6.74141 89.8566 8.59692 90.0759 10.4062C89.5104 10.6425 89.051 10.8184 88.7677 10.9211C82.5756 13.166 72.9517 16.3346 64.0018 17.6597C58.2431 18.5127 52.773 18.6263 48.7692 17.1133C47.0616 16.4676 45.9334 15.714 45.3211 14.8394C46.5295 14.482 47.6947 14.1303 48.8079 13.7946C51.0094 13.1306 55.5931 12.0316 58.8681 10.0728C61.4724 8.51529 63.2383 6.3966 63.1356 3.74068C63.0831 2.37618 62.2849 1.46555 61.0148 0.955146C59.1168 0.192967 55.8344 0.561774 54.6121 0.818688C50.905 1.59628 45.9571 4.81514 43.5091 8.4422C42.5321 9.88948 41.951 11.4036 41.8893 12.8668ZM44.9345 11.975C45.9819 11.6633 46.9941 11.3573 47.9665 11.0639C50.0215 10.4438 54.3172 9.45899 57.3751 7.62976C58.9944 6.66148 60.3165 5.50139 60.2525 3.84971C60.2473 3.72126 60.1186 3.68473 60.0049 3.63221C59.8289 3.55171 59.6275 3.49631 59.4128 3.45292C57.9603 3.15947 56.0092 3.4432 55.2105 3.61105C52.1001 4.26361 47.9624 6.98406 45.9086 10.0276C45.4746 10.6705 45.129 11.3253 44.9345 11.975ZM92.9267 9.09191C94.2828 8.40166 95.7024 7.56697 96.8219 6.65863C97.4163 6.1762 97.9184 5.68009 98.2358 5.16512C98.5013 4.73922 98.6051 4.30301 98.2877 3.88167C98.1608 3.71096 97.9704 3.70756 97.7741 3.73953C97.5664 3.77379 97.3529 3.84684 97.1393 3.94105C95.7313 4.55421 94.277 5.98666 93.8096 6.65863C93.2614 7.43794 92.9901 8.26236 92.9267 9.09191Z" fill="#200E32"/>
</svg>
